<svg width="27" height="25" viewBox="0 0 27 25" fill="none" xmlns="http://www.w3.org/2000/svg">
<path d="M25.1412 24.3302C24.8217 24.3395 24.5087 24.2391 24.2542 24.0457C23.9998 23.8524 23.8192 23.5776 23.7427 23.2673C23.113 20.7724 21.7263 18.5335 19.7731 16.8583C17.8199 15.183 15.396 14.1536 12.8342 13.9112V15.4776C12.834 15.9675 12.6892 16.4464 12.418 16.8544C12.1469 17.2624 11.7614 17.5813 11.3098 17.7712C10.8201 17.9963 10.2758 18.0751 9.7424 17.9982C9.20897 17.9213 8.70913 17.6919 8.30298 17.3376L1.22645 11.1701C0.955092 10.9391 0.737152 10.6518 0.587697 10.3282C0.438243 10.0047 0.36084 9.65252 0.36084 9.29611C0.36084 8.9397 0.438243 8.58754 0.587697 8.26397C0.737152 7.94041 0.955092 7.65316 1.22645 7.42209L8.30298 1.24062C8.71447 0.880238 9.22259 0.648417 9.76448 0.573846C10.3064 0.499275 10.8582 0.585226 11.3518 0.821064C11.8033 1.01096 12.1888 1.32987 12.46 1.73786C12.7312 2.14584 12.8759 2.62476 12.8761 3.11464V4.75091C16.6748 5.04461 20.2255 6.75146 22.8274 9.53464C25.4294 12.3178 26.8937 15.9752 26.9313 19.785C26.9294 20.9591 26.7838 22.1286 26.4978 23.2673C26.4212 23.5776 26.2406 23.8524 25.9862 24.0457C25.7317 24.2391 25.4187 24.3395 25.0992 24.3302H25.1412Z" fill="#FBFBFB"/>
</svg>
