<svg width="29" height="29" viewBox="0 0 29 29" fill="none" xmlns="http://www.w3.org/2000/svg">
<circle cx="14.0317" cy="14.0317" r="14.0317" fill="#FDEFE1"/>
<path d="M7.68986 8.27775C7.77768 8.1897 7.882 8.11985 7.99686 8.07219C8.11172 8.02453 8.23485 8 8.3592 8C8.48355 8 8.60668 8.02453 8.72154 8.07219C8.8364 8.11985 8.94072 8.1897 9.02854 8.27775L14.0316 13.2827L19.0347 8.27775C19.1226 8.18985 19.2269 8.12012 19.3418 8.07255C19.4566 8.02498 19.5797 8.00049 19.704 8.00049C19.8283 8.00049 19.9514 8.02498 20.0663 8.07255C20.1811 8.12012 20.2854 8.18985 20.3733 8.27775C20.4612 8.36565 20.531 8.47 20.5785 8.58484C20.6261 8.69969 20.6506 8.82278 20.6506 8.94709C20.6506 9.0714 20.6261 9.19449 20.5785 9.30934C20.531 9.42418 20.4612 9.52853 20.3733 9.61643L15.3684 14.6195L20.3733 19.6226C20.4612 19.7105 20.531 19.8148 20.5785 19.9296C20.6261 20.0445 20.6506 20.1676 20.6506 20.2919C20.6506 20.4162 20.6261 20.5393 20.5785 20.6541C20.531 20.769 20.4612 20.8733 20.3733 20.9612C20.2854 21.0491 20.1811 21.1189 20.0663 21.1664C19.9514 21.214 19.8283 21.2385 19.704 21.2385C19.5797 21.2385 19.4566 21.214 19.3418 21.1664C19.2269 21.1189 19.1226 21.0491 19.0347 20.9612L14.0316 15.9563L9.02854 20.9612C8.94064 21.0491 8.83629 21.1189 8.72145 21.1664C8.6066 21.214 8.48351 21.2385 8.3592 21.2385C8.23489 21.2385 8.1118 21.214 7.99695 21.1664C7.88211 21.1189 7.77776 21.0491 7.68986 20.9612C7.60196 20.8733 7.53223 20.769 7.48466 20.6541C7.43709 20.5393 7.4126 20.4162 7.4126 20.2919C7.4126 20.1676 7.43709 20.0445 7.48466 19.9296C7.53223 19.8148 7.60196 19.7105 7.68986 19.6226L12.6948 14.6195L7.68986 9.61643C7.60181 9.52861 7.53196 9.42429 7.4843 9.30943C7.43664 9.19457 7.41211 9.07144 7.41211 8.94709C7.41211 8.82274 7.43664 8.69961 7.4843 8.58475C7.53196 8.46989 7.60181 8.36557 7.68986 8.27775Z" fill="#4A4B4D"/>
</svg>
