<svg width="29" height="29" viewBox="0 0 29 29" fill="none" xmlns="http://www.w3.org/2000/svg">
<circle cx="14.0317" cy="14.0317" r="14.0317" fill="white"/>
<path d="M9.23078 9.23078C9.30375 9.15763 9.39044 9.09959 9.48587 9.05999C9.58131 9.02038 9.68362 9 9.78695 9C9.89027 9 9.99258 9.02038 10.088 9.05999C10.1835 9.09959 10.2701 9.15763 10.3431 9.23078L14.5002 13.3894L18.6573 9.23078C18.7303 9.15775 18.817 9.09981 18.9125 9.06028C19.0079 9.02076 19.1102 9.00041 19.2135 9.00041C19.3168 9.00041 19.419 9.02076 19.5145 9.06028C19.6099 9.09981 19.6966 9.15775 19.7696 9.23078C19.8427 9.30382 19.9006 9.39053 19.9401 9.48595C19.9797 9.58138 20 9.68366 20 9.78695C20 9.89024 19.9797 9.99251 19.9401 10.0879C19.9006 10.1834 19.8427 10.2701 19.7696 10.3431L15.611 14.5002L19.7696 18.6573C19.8427 18.7303 19.9006 18.817 19.9401 18.9125C19.9797 19.0079 20 19.1102 20 19.2135C20 19.3168 19.9797 19.419 19.9401 19.5145C19.9006 19.6099 19.8427 19.6966 19.7696 19.7696C19.6966 19.8427 19.6099 19.9006 19.5145 19.9401C19.419 19.9797 19.3168 20 19.2135 20C19.1102 20 19.0079 19.9797 18.9125 19.9401C18.817 19.9006 18.7303 19.8427 18.6573 19.7696L14.5002 15.611L10.3431 19.7696C10.2701 19.8427 10.1834 19.9006 10.0879 19.9401C9.99251 19.9797 9.89024 20 9.78695 20C9.68366 20 9.58138 19.9797 9.48595 19.9401C9.39053 19.9006 9.30382 19.8427 9.23078 19.7696C9.15775 19.6966 9.09981 19.6099 9.06028 19.5145C9.02076 19.419 9.00041 19.3168 9.00041 19.2135C9.00041 19.1102 9.02076 19.0079 9.06028 18.9125C9.09981 18.817 9.15775 18.7303 9.23078 18.6573L13.3894 14.5002L9.23078 10.3431C9.15763 10.2701 9.09959 10.1835 9.05999 10.088C9.02038 9.99258 9 9.89027 9 9.78695C9 9.68362 9.02038 9.58131 9.05999 9.48587C9.09959 9.39044 9.15763 9.30375 9.23078 9.23078Z" fill="#FF9300" stroke="#FF9300"/>
</svg>
