<svg width="22" height="22" viewBox="0 0 22 22" fill="none" xmlns="http://www.w3.org/2000/svg">
<path d="M9.75297 21C9.39973 21 9.10343 20.88 8.86405 20.64C8.62468 20.4 8.50541 20.1033 8.50624 19.75V12.25L1.27523 3C0.963547 2.58333 0.916587 2.14583 1.13435 1.6875C1.35211 1.22917 1.73153 1 2.27261 1H19.7268C20.267 1 20.6465 1.22917 20.865 1.6875C21.0836 2.14583 21.0367 2.58333 20.7242 3L13.4932 12.25V19.75C13.4932 20.1042 13.3735 20.4012 13.1341 20.6412C12.8947 20.8812 12.5988 21.0008 12.2464 21H9.75297Z" stroke="white" stroke-width="1.5"/>
</svg>
