<svg width="29" height="28" viewBox="0 0 29 28" fill="none" xmlns="http://www.w3.org/2000/svg">
<path d="M28.021 14.2377L15.6645 0.508327C15.1442 -0.0710538 14.1447 -0.0710538 13.6243 0.508327L1.26786 14.2377C1.09001 14.4349 0.973263 14.6795 0.931827 14.9417C0.890392 15.204 0.926048 15.4727 1.03446 15.715C1.25413 16.2107 1.74565 16.5292 2.28796 16.5292H5.03384V26.1398C5.03384 26.5039 5.17849 26.8531 5.43597 27.1106C5.69344 27.3681 6.04266 27.5127 6.40678 27.5127H10.5256C10.8897 27.5127 11.2389 27.3681 11.4964 27.1106C11.7539 26.8531 11.8985 26.5039 11.8985 26.1398V20.648H17.3903V26.1398C17.3903 26.5039 17.535 26.8531 17.7924 27.1106C18.0499 27.3681 18.3991 27.5127 18.7633 27.5127H22.8821C23.2462 27.5127 23.5954 27.3681 23.8529 27.1106C24.1104 26.8531 24.255 26.5039 24.255 26.1398V16.5292H27.0009C27.2668 16.5303 27.5273 16.4541 27.7506 16.3097C27.9739 16.1654 28.1504 15.9592 28.2585 15.7163C28.3666 15.4733 28.4018 15.2042 28.3596 14.9417C28.3174 14.6792 28.1998 14.4346 28.021 14.2377Z" fill="#FBFBFB"/>
</svg>
