<?xml version="1.0" encoding="utf-8"?>
<!-- Generator: Adobe Illustrator 27.0.0, SVG Export Plug-In . SVG Version: 6.00 Build 0)  -->
<svg version="1.1" id="Layer_1" xmlns="http://www.w3.org/2000/svg" xmlns:xlink="http://www.w3.org/1999/xlink" x="0px" y="0px"
	 viewBox="0 0 405.09 422.81" style="enable-background:new 0 0 405.09 422.81;" xml:space="preserve">
<style type="text/css">
	.st0{fill:#FFFFFF;}
</style>
<g>
	<path class="st0" d="M212.2,19.85c5.77,1.68,11.8,2.11,17.61,3.71c46.62,12.82,78.21,58.96,73.14,107.01
		c-4.95,46.94-39.48,83.08-86.33,90.34c-52.95,8.21-105.44-30.09-113.69-82.95c-8.2-52.53,22.23-100.06,73.3-114.67
		c4.96-1.42,10.2-1.5,15.01-3.46C198.23,19.85,205.21,19.85,212.2,19.85z M202.57,42.3c-43.23-0.05-78.54,35.09-78.67,78.27
		c-0.12,43.39,35.11,78.81,78.45,78.86c43.22,0.05,78.53-35.09,78.67-78.27C281.17,77.76,245.94,42.35,202.57,42.3z"/>
	<path class="st0" d="M202.31,402.96c-51.49,0-102.98,0-154.47,0c-9.66,0-13.76-4.22-13.62-13.98
		c0.93-66.1,47.2-124.47,111.33-140.43c10.92-2.72,22.02-4.15,33.28-4.19c15.71-0.06,31.42-0.16,47.13,0
		c65.24,0.66,122.67,45.2,139.68,108.19c3.33,12.33,5.11,24.86,5.25,37.63c0.09,8.17-4.43,12.77-12.6,12.77
		C306.29,402.96,254.3,402.96,202.31,402.96z M202.52,380.51c47.12,0,94.24-0.05,141.37,0.1c3.74,0.01,4.17-1.15,3.7-4.36
		c-1.69-11.63-4.31-23.02-9.18-33.73c-18.93-41.55-50.54-67.35-95.94-74.19c-24.31-3.67-49.09-2.66-73.52-0.76
		c-57.65,4.48-104.99,51.38-111.5,109.01c-0.37,3.31,0.38,4.03,3.71,4.02C108.27,380.47,155.4,380.51,202.52,380.51z"/>
</g>
</svg>
