<svg width="24" height="24" viewBox="0 0 24 24" fill="none" xmlns="http://www.w3.org/2000/svg">
<path d="M21.8889 8.55556C20.33 5.26667 16.93 3 13 3C11.6868 3 10.3864 3.25866 9.17317 3.7612C7.95991 4.26375 6.85752 5.00035 5.92893 5.92893C5.00035 6.85752 4.26375 7.95991 3.7612 9.17317C3.25866 10.3864 3 11.6868 3 13C3 14.3132 3.25866 15.6136 3.7612 16.8268C4.26375 18.0401 5.00035 19.1425 5.92893 20.0711C6.85752 20.9997 7.95991 21.7363 9.17317 22.2388C10.3864 22.7413 11.6868 23 13 23C15.6522 23 18.1957 21.9464 20.0711 20.0711C21.9464 18.1957 23 15.6522 23 13M23 3V9.66667H16.3333" stroke="white" stroke-width="2"/>
</svg>
