<svg width="16" height="16" viewBox="0 0 16 16" fill="none" xmlns="http://www.w3.org/2000/svg">
<path d="M14.7666 14.2954L11.9368 11.4739C12.8498 10.3107 13.3452 8.8743 13.3434 7.39557C13.3434 6.07864 12.9529 4.79129 12.2212 3.6963C11.4896 2.60132 10.4497 1.74788 9.23298 1.24391C8.01629 0.739946 6.67749 0.608085 5.38587 0.865005C4.09424 1.12192 2.90781 1.75609 1.9766 2.68729C1.04539 3.6185 0.411231 4.80494 0.154311 6.09656C-0.102608 7.38818 0.0292522 8.72699 0.533219 9.94367C1.03719 11.1604 1.89062 12.2003 2.98561 12.9319C4.08059 13.6636 5.36795 14.0541 6.68488 14.0541C8.16361 14.0559 9.60001 13.5605 10.7632 12.6475L13.5848 15.4773C13.6621 15.5553 13.7542 15.6173 13.8556 15.6595C13.957 15.7018 14.0658 15.7235 14.1757 15.7235C14.2856 15.7235 14.3944 15.7018 14.4958 15.6595C14.5972 15.6173 14.6893 15.5553 14.7666 15.4773C14.8446 15.4 14.9066 15.3079 14.9488 15.2065C14.9911 15.1051 15.0128 14.9963 15.0128 14.8864C15.0128 14.7765 14.9911 14.6677 14.9488 14.5663C14.9066 14.4649 14.8446 14.3728 14.7666 14.2954ZM1.691 7.39557C1.691 6.40787 1.98388 5.44236 2.53262 4.62112C3.08135 3.79988 3.86129 3.1598 4.7738 2.78183C5.68631 2.40385 6.69041 2.30496 7.65913 2.49765C8.62785 2.69034 9.51767 3.16596 10.2161 3.86436C10.9145 4.56277 11.3901 5.45259 11.5828 6.42131C11.7755 7.39003 11.6766 8.39413 11.2986 9.30664C10.9206 10.2192 10.2806 10.9991 9.45933 11.5478C8.63809 12.0966 7.67257 12.3894 6.68488 12.3894C5.36042 12.3894 4.0902 11.8633 3.15367 10.9268C2.21714 9.99024 1.691 8.72003 1.691 7.39557Z" fill="#40464A"/>
</svg>
