<svg width="33" height="33" viewBox="0 0 33 33" fill="none" xmlns="http://www.w3.org/2000/svg">
<path d="M16.088 0.111328H16.588L17.208 0.401328L31.208 7.40133C31.6382 7.57227 32.0098 7.86399 32.278 8.24133V9.24133C32.0053 9.63355 31.6225 9.93626 31.178 10.1113L26.858 12.2613L26.538 12.4313L26.828 12.5913L31.178 14.7613C31.6236 14.9294 32.0074 15.2294 32.278 15.6213V16.6213C32.0074 17.0133 31.6236 17.3133 31.178 17.4813L26.858 19.6313L26.538 19.8113L26.828 19.9713L31.178 22.1113C31.6225 22.2864 32.0053 22.5891 32.278 22.9813V23.9813C32.0017 24.3678 31.6198 24.6664 31.178 24.8413L24.338 28.2513L16.588 32.1113H16.088L15.638 31.9113L10.418 29.3013L1.18801 24.6813C0.848008 24.543 0.575359 24.2775 0.428005 23.9413C0.310325 23.641 0.313297 23.3068 0.436299 23.0086C0.5593 22.7104 0.792809 22.4713 1.08801 22.3413L5.828 19.9713L6.14801 19.7913L5.79801 19.6113C4.24801 18.8413 2.70801 18.1113 1.15801 17.3013C0.821817 17.154 0.556344 16.8813 0.418005 16.5413C0.305598 16.2399 0.314732 15.9066 0.443479 15.6118C0.572226 15.317 0.810507 15.0837 1.10801 14.9613L5.828 12.6013L6.14801 12.4213L5.79801 12.2413L1.19801 9.94133C0.948567 9.85489 0.732262 9.69288 0.579172 9.47781C0.426083 9.26275 0.343818 9.00532 0.343818 8.74133C0.343818 8.47734 0.426083 8.21991 0.579172 8.00484C0.732262 7.78978 0.948567 7.62776 1.19801 7.54133L9.47801 3.40133L16.088 0.111328ZM4.40801 8.73133C4.47848 8.77636 4.55199 8.81646 4.62801 8.85133L16.118 14.6113C16.1946 14.6533 16.2806 14.6754 16.368 14.6754C16.4554 14.6754 16.5414 14.6533 16.618 14.6113L27.968 8.90133L28.258 8.73133L27.958 8.57133L16.608 2.88133C16.5268 2.83669 16.4357 2.81328 16.343 2.81328C16.2503 2.81328 16.1592 2.83669 16.078 2.88133L6.458 7.70133L4.40801 8.73133ZM4.40801 16.1113L4.62801 16.2313C8.43467 18.1513 12.2713 20.0647 16.138 21.9713C16.2821 22.0308 16.4439 22.0308 16.588 21.9713L27.998 16.2713L28.248 16.1213L28.118 16.0313C26.718 15.3313 25.318 14.6213 23.908 13.9413C23.7603 13.8823 23.5957 13.8823 23.448 13.9413L17.088 17.1113C16.8578 17.2419 16.5977 17.3106 16.333 17.3106C16.0683 17.3106 15.8082 17.2419 15.578 17.1113C13.478 16.1113 11.338 15.0213 9.248 13.9613C9.1617 13.9103 9.06327 13.8834 8.96301 13.8834C8.86274 13.8834 8.76431 13.9103 8.67801 13.9613L4.67801 15.9613L4.40801 16.1113ZM28.268 23.4913L27.948 23.3213L23.948 21.3213C23.8629 21.267 23.764 21.2382 23.663 21.2382C23.562 21.2382 23.4631 21.267 23.378 21.3213C21.268 22.3813 19.148 23.4213 17.048 24.4913C16.8178 24.6219 16.5577 24.6906 16.293 24.6906C16.0283 24.6906 15.7682 24.6219 15.538 24.4913L9.22801 21.3213C9.1493 21.2747 9.05949 21.2501 8.96801 21.2501C8.87652 21.2501 8.78671 21.2747 8.708 21.3213L6.478 22.4413L4.40801 23.4413C4.49721 23.4987 4.59084 23.5488 4.688 23.5913L16.098 29.3113C16.1774 29.356 16.2669 29.3795 16.358 29.3795C16.4491 29.3795 16.5386 29.356 16.618 29.3113L23.898 25.6613L28.268 23.4913Z" fill="white"/>
</svg>
