<svg width="18" height="10" viewBox="0 0 18 10" fill="none" xmlns="http://www.w3.org/2000/svg">
<path d="M3.40011 1.15757L9.30285 6.46092L15.2056 1.15757C15.3464 1.03102 15.5137 0.930644 15.6977 0.862158C15.8817 0.793673 16.0789 0.758423 16.2781 0.758423C16.4773 0.758423 16.6746 0.793673 16.8586 0.862158C17.0426 0.930644 17.2098 1.03102 17.3507 1.15757C17.4915 1.28411 17.6032 1.43434 17.6795 1.59968C17.7557 1.76502 17.7949 1.94223 17.7949 2.12119C17.7949 2.30015 17.7557 2.47736 17.6795 2.6427C17.6032 2.80804 17.4915 2.95827 17.3507 3.08482L10.3678 9.35862C9.77446 9.89169 8.81603 9.89169 8.22271 9.35862L1.23983 3.08482C1.09879 2.95836 0.986902 2.80816 0.910561 2.64281C0.834219 2.47746 0.794922 2.30021 0.794922 2.12119C0.794922 1.94218 0.834219 1.76492 0.910561 1.59957C0.986902 1.43422 1.09879 1.28402 1.23983 1.15757C1.83314 0.638169 2.80679 0.624501 3.40011 1.15757Z" fill="#4A4B4D"/>
</svg>
