<svg width="33" height="33" viewBox="0 0 33 33" fill="none" xmlns="http://www.w3.org/2000/svg">
<path d="M24.3549 0.875114C25.8049 0.875114 27.2649 0.875114 28.7149 0.875114C29.6289 0.84981 30.5198 1.16381 31.216 1.75655C31.9121 2.34929 32.3642 3.1788 32.4849 4.08511C32.5048 4.30467 32.5048 4.52556 32.4849 4.74511V13.0151C32.5029 14.017 32.3142 15.0118 31.9305 15.9375C31.5468 16.8631 30.9764 17.6998 30.2549 18.3951C25.8349 22.8151 21.4116 27.2318 16.9849 31.6451C16.6351 32.0329 16.2079 32.343 15.7307 32.5552C15.2535 32.7675 14.7371 32.8771 14.2149 32.8771C13.6927 32.8771 13.1762 32.7675 12.6991 32.5552C12.2219 32.343 11.7946 32.0329 11.4449 31.6451L1.71489 21.8751C1.32844 21.5245 1.01963 21.097 0.8083 20.6199C0.596968 20.1429 0.487793 19.6269 0.487793 19.1051C0.487793 18.5833 0.596968 18.0674 0.8083 17.5903C1.01963 17.1132 1.32844 16.6857 1.71489 16.3351L14.9149 3.13511C15.6156 2.40215 16.4611 1.82278 17.3975 1.43374C18.334 1.04469 19.341 0.854466 20.3549 0.875114H24.3549ZM29.9849 8.99511V4.87511C30.0193 4.66998 30.0043 4.4596 29.9413 4.26139C29.8782 4.06318 29.7689 3.88283 29.6223 3.73526C29.4757 3.5877 29.2961 3.47716 29.0983 3.41279C28.9005 3.34843 28.6902 3.33208 28.4849 3.36511C25.8149 3.36511 23.1349 3.36511 20.4849 3.36511C19.7615 3.347 19.0424 3.48094 18.374 3.75828C17.7056 4.03561 17.1029 4.45017 16.6049 4.97511C12.2649 9.34845 7.91155 13.7084 3.54489 18.0551C3.36958 18.1743 3.22609 18.3346 3.12692 18.522C3.02774 18.7093 2.9759 18.9181 2.9759 19.1301C2.9759 19.3421 3.02774 19.5509 3.12692 19.7383C3.22609 19.9256 3.36958 20.0859 3.54489 20.2051L13.1949 29.8751C13.3137 30.0269 13.4655 30.1496 13.6387 30.234C13.812 30.3184 14.0022 30.3622 14.1949 30.3622C14.3876 30.3622 14.5778 30.3184 14.7511 30.234C14.9243 30.1496 15.0761 30.0269 15.1949 29.8751L28.4849 16.6351C28.9781 16.1621 29.3672 15.5914 29.6272 14.9595C29.8872 14.3275 30.0124 13.6482 29.9949 12.9651L29.9849 8.99511Z" fill="white"/>
<path d="M23.4851 6.06512C24.2268 6.0671 24.9512 6.28897 25.5668 6.70266C26.1824 7.11636 26.6615 7.70331 26.9435 8.38929C27.2255 9.07527 27.2977 9.82946 27.1511 10.5565C27.0044 11.2835 26.6455 11.9508 26.1197 12.4738C25.5938 12.9969 24.9247 13.3522 24.1969 13.495C23.4691 13.6377 22.7153 13.5615 22.0308 13.2758C21.3463 12.9902 20.762 12.508 20.3515 11.8902C19.9411 11.2724 19.7231 10.5468 19.7251 9.80512C19.7251 9.31229 19.8225 8.82431 20.0117 8.36925C20.2009 7.91418 20.4782 7.501 20.8276 7.15344C21.177 6.80589 21.5917 6.53082 22.0477 6.34405C22.5038 6.15727 22.9923 6.06248 23.4851 6.06512ZM24.6651 9.87512C24.6691 9.6275 24.5994 9.3843 24.4649 9.17635C24.3304 8.9684 24.1372 8.80509 23.9098 8.70712C23.6823 8.60916 23.4309 8.58096 23.1874 8.6261C22.9439 8.67125 22.7193 8.7877 22.5421 8.96069C22.3649 9.13368 22.2431 9.35541 22.1921 9.59774C22.1411 9.84008 22.1632 10.0921 22.2557 10.3218C22.3481 10.5516 22.5067 10.7487 22.7114 10.8881C22.916 11.0276 23.1575 11.1031 23.4051 11.1051C23.5688 11.1078 23.7314 11.078 23.8835 11.0175C24.0356 10.957 24.1742 10.8669 24.2913 10.7526C24.4085 10.6382 24.5018 10.5018 24.566 10.3512C24.6301 10.2006 24.6638 10.0388 24.6651 9.87512Z" fill="white"/>
</svg>
