<svg width="31" height="31" viewBox="0 0 31 31" fill="none" xmlns="http://www.w3.org/2000/svg">
<path d="M8.90771 15.5301C8.91247 16.9392 9.08894 18.3424 9.43322 19.7087H14.9256V11.6736H9.35694C9.06394 12.9383 8.91326 14.2319 8.90771 15.5301Z" fill="#FBFBFB"/>
<path d="M16.3662 11.6736V19.7087H21.8586C22.2172 18.3442 22.4079 16.9409 22.4265 15.5301C22.4237 14.2322 22.2759 12.9387 21.9857 11.6736H16.3662Z" fill="#FBFBFB"/>
<path d="M15.6459 1.96866C12.9637 1.96866 10.3418 2.76402 8.11158 4.25417C5.88142 5.74432 4.14321 7.86233 3.11678 10.3404C2.09035 12.8184 1.82179 15.5451 2.34506 18.1758C2.86833 20.8065 4.15993 23.2229 6.05653 25.1195C7.95313 27.0161 10.3695 28.3077 13.0002 28.8309C15.6309 29.3542 18.3576 29.0857 20.8356 28.0592C23.3137 27.0328 25.4317 25.2946 26.9218 23.0644C28.412 20.8343 29.2073 18.2123 29.2073 15.5301C29.2073 11.9334 27.7786 8.48397 25.2353 5.94071C22.692 3.39745 19.2426 1.96866 15.6459 1.96866ZM26.0035 21.2174H22.9352C22.3551 23.0336 21.4973 24.7491 20.3924 26.303C19.5771 26.6583 18.724 26.9199 17.8496 27.0827C19.4156 25.3812 20.6207 23.3803 21.3926 21.2005H16.3748V27.2607H14.9424V21.2174H9.89926C10.6701 23.4002 11.8753 25.4041 13.4422 27.1082C12.5858 26.9471 11.75 26.6912 10.9503 26.3453C9.84147 24.7785 8.98359 23.0484 8.4075 21.2174H5.28837C5.0176 20.7235 4.7825 20.2108 4.58487 19.6833H7.97523C7.65754 18.3215 7.49266 16.9285 7.48362 15.5301C7.48409 14.2339 7.62045 12.9413 7.89047 11.6736H4.42383C4.60207 11.1476 4.81733 10.635 5.06799 10.1394H8.29731C8.90324 8.12135 9.84295 6.21903 11.0774 4.51143C11.8602 4.18707 12.6758 3.94835 13.51 3.79945C11.8238 5.6091 10.5513 7.76371 9.78059 10.114H14.9424V3.66384H16.3748V10.1394H21.5367C20.7673 7.7929 19.4978 5.64134 17.8157 3.83336C18.6486 3.97151 19.4641 4.19884 20.2483 4.51143C21.4756 6.20669 22.4123 8.09434 23.0199 10.097H26.2154C26.466 10.5926 26.6813 11.1052 26.8595 11.6312H23.4183C23.6941 12.9125 23.8334 14.2194 23.8336 15.5301C23.8293 16.9366 23.6672 18.3383 23.3505 19.7087H26.7409C26.5312 20.2285 26.2847 20.7326 26.0035 21.2174Z" fill="#FBFBFB"/>
</svg>
