<svg width="14" height="14" viewBox="0 0 14 14" fill="none" xmlns="http://www.w3.org/2000/svg">
<path d="M12.8374 6.33752H7.9624V1.46252C7.9624 1.24704 7.8768 1.04037 7.72443 0.888C7.57205 0.735627 7.36539 0.650024 7.1499 0.650024C6.93441 0.650024 6.72775 0.735627 6.57538 0.888C6.42301 1.04037 6.3374 1.24704 6.3374 1.46252V6.33752H1.4624C1.24691 6.33752 1.04025 6.42313 0.887878 6.5755C0.735505 6.72787 0.649902 6.93454 0.649902 7.15002C0.649902 7.36551 0.735505 7.57218 0.887878 7.72455C1.04025 7.87692 1.24691 7.96252 1.4624 7.96252H6.3374V12.8375C6.3374 13.053 6.42301 13.2597 6.57538 13.412C6.72775 13.5644 6.93441 13.65 7.1499 13.65C7.36539 13.65 7.57205 13.5644 7.72443 13.412C7.8768 13.2597 7.9624 13.053 7.9624 12.8375V7.96252H12.8374C13.0529 7.96252 13.2596 7.87692 13.4119 7.72455C13.5643 7.57218 13.6499 7.36551 13.6499 7.15002C13.6499 6.93454 13.5643 6.72787 13.4119 6.5755C13.2596 6.42313 13.0529 6.33752 12.8374 6.33752Z" fill="#4A4B4D"/>
</svg>
